<svg width="23" height="23" viewBox="0 0 23 23" fill="none" xmlns="http://www.w3.org/2000/svg">
<g clip-path="url(#clip0_51_153)">
<path d="M8.75426 0.713135C7.89424 0.713135 7.02425 0.990764 6.33222 1.57788C5.79066 2.03734 5.44596 2.73378 5.26158 3.51888C3.5788 4.04997 2.35578 5.56676 2.35289 7.37842V7.38029C2.35316 7.65163 2.4369 7.91094 2.4914 8.17578C-0.206938 10.3982 0.232493 14.6055 3.29438 16.2524C3.28762 16.3447 3.26285 16.4348 3.26256 16.5275V16.5312V16.5332C3.26921 18.7643 5.07869 20.5821 7.29991 20.6323C7.3015 20.6362 7.30393 20.6396 7.30553 20.6435C7.32299 20.6451 7.34046 20.6422 7.35794 20.6435C7.36455 20.6436 7.37004 20.6472 7.37666 20.6472L7.30553 20.6435C7.71249 21.6513 8.51635 22.466 9.66018 22.4778H9.66766H9.67513C11.1751 22.4701 12.4076 21.2376 12.4154 19.7376V19.7338V4.21704V4.17773H11.9081L12.4135 4.16276C12.3493 3.07653 11.8683 2.165 11.1763 1.57788C10.4843 0.990764 9.61428 0.713135 8.75426 0.713135ZM8.75426 2.5437C9.21606 2.5437 9.66852 2.69861 9.99335 2.9742C10.3172 3.24899 10.546 3.63176 10.5848 4.26758V19.7282C10.5821 20.2429 10.1867 20.6384 9.67329 20.6453C9.15777 20.6367 8.75959 20.2391 8.75426 19.7226L8.7449 18.7231L7.74913 18.8204C7.65579 18.8296 7.56171 18.8296 7.46837 18.8204L7.42532 18.8167H7.38227C6.11 18.8129 5.09791 17.8033 5.09313 16.5312C5.09312 16.5306 5.09313 16.53 5.09313 16.5293C5.09402 16.373 5.11262 16.2157 5.14741 16.0633L5.33271 15.2528L4.54283 14.9927C1.87936 14.1089 1.50501 10.6441 3.91767 9.21086L4.56717 8.82528L4.31074 8.11401C4.22601 7.87762 4.18371 7.62953 4.18346 7.37842C4.18618 6.23848 5.013 5.28682 6.1413 5.12297L6.87877 5.0144L6.92182 4.27132C6.9596 3.63213 7.1922 3.2498 7.51704 2.9742C7.84187 2.69861 8.29246 2.5437 8.75426 2.5437Z" fill="url(#paint0_linear_51_153)"/>
<path d="M6.41838 3.26433C5.18272 3.33191 4.15906 3.87131 3.49658 4.64942C2.8341 5.42753 2.51953 6.41086 2.51953 7.38404C2.51953 8.35722 2.8341 9.34055 3.49658 10.1187C4.15906 10.8968 5.18272 11.4362 6.41838 11.5037L6.51945 9.67505C5.73172 9.63197 5.23837 9.34214 4.88916 8.93197C4.53995 8.52181 4.34823 7.95833 4.34823 7.38404C4.34823 6.80975 4.53995 6.24627 4.88916 5.83611C5.23837 5.42594 5.73172 5.13611 6.51945 5.09302L6.41838 3.26433Z" fill="url(#paint1_linear_51_153)"/>
<path d="M7.83887 12.4153V14.2458C9.36607 14.2458 10.5847 15.4645 10.5847 16.9917H12.4153C12.4153 14.4753 10.3553 12.4153 7.83887 12.4153Z" fill="url(#paint2_linear_51_153)"/>
<path d="M12.4153 4.17586L10.5847 4.18147C10.5883 5.20319 9.78149 6.01392 8.75977 6.01391V7.84448C10.773 7.84449 12.4223 6.18906 12.4153 4.17586Z" fill="url(#paint3_linear_51_153)"/>
<path d="M14.2458 0.713135C13.3858 0.713135 12.5158 0.990764 11.8238 1.57788C11.1318 2.165 10.6508 3.07653 10.5866 4.16276L11.092 4.17773H10.5847V4.21704V19.7338V19.7375C10.5925 21.2375 11.825 22.47 13.325 22.4778H13.3324H13.3399C14.4837 22.466 15.2876 21.6512 15.6946 20.6435L15.6234 20.6472C15.63 20.6472 15.6355 20.6435 15.6421 20.6435C15.6596 20.6421 15.6771 20.6451 15.6946 20.6435C15.6962 20.6395 15.6986 20.6362 15.7002 20.6322C17.9214 20.5821 19.7309 18.7643 19.7376 16.5331V16.5312V16.5275C19.7373 16.4347 19.7125 16.3447 19.7057 16.2523C22.7676 14.6055 23.2071 10.3982 20.5087 8.17573C20.5632 7.9109 20.647 7.65159 20.6472 7.38024V7.37838C20.6443 5.56676 19.4213 4.04997 17.7385 3.51888C17.5541 2.73378 17.2094 2.03734 16.6679 1.57788C15.9759 0.990764 15.1059 0.713135 14.2458 0.713135ZM14.2458 2.5437C14.7077 2.5437 15.1582 2.69861 15.4831 2.9742C15.8079 3.2498 16.0405 3.63213 16.0783 4.27132L16.1213 5.0144L16.8588 5.12297C17.9877 5.28691 18.8148 6.23952 18.8166 7.38029C18.8162 7.63077 18.7739 7.87821 18.6894 8.11401L18.4329 8.82528L19.0824 9.21086C21.4951 10.6441 21.1207 14.1089 18.4573 14.9927L17.6674 15.2528L17.8527 16.0633C17.8876 16.2163 17.9062 16.3743 17.907 16.5312C17.9022 17.8033 16.8901 18.8129 15.6178 18.8166H15.5748L15.5317 18.8204C15.4384 18.8296 15.3443 18.8296 15.251 18.8204L14.2552 18.7231L14.2458 19.7226C14.2404 20.2391 13.8423 20.6367 13.3268 20.6453C12.8134 20.6383 12.4179 20.2429 12.4153 19.7282V4.26758C12.4541 3.63176 12.6828 3.24899 13.0067 2.9742C13.3316 2.69861 13.784 2.5437 14.2458 2.5437Z" fill="url(#paint4_linear_51_153)"/>
<path d="M16.5818 3.26433L16.4807 5.09302C17.2684 5.13611 17.7618 5.42594 18.111 5.83611C18.4602 6.24627 18.6519 6.80975 18.6519 7.38404C18.6519 7.95833 18.4602 8.52181 18.111 8.93197C17.7618 9.34214 17.2684 9.63197 16.4807 9.67505L16.5818 11.5037C17.8174 11.4362 18.8411 10.8968 19.5036 10.1187C20.1661 9.34055 20.4806 8.35722 20.4806 7.38404C20.4806 6.41086 20.1661 5.42753 19.5036 4.64942C18.8411 3.87131 17.8174 3.33191 16.5818 3.26433Z" fill="url(#paint5_linear_51_153)"/>
<path d="M15.1611 12.4153C12.6447 12.4153 10.5847 14.4753 10.5847 16.9917H12.4153C12.4153 15.4645 13.6339 14.2458 15.1611 14.2458V12.4153Z" fill="url(#paint6_linear_51_153)"/>
<path d="M10.5847 4.17586C10.5777 6.18906 12.227 7.84449 14.2403 7.84448V6.01391C13.2185 6.01392 12.4117 5.20319 12.4153 4.18147L10.5847 4.17586Z" fill="url(#paint7_linear_51_153)"/>
</g>
<defs>
<linearGradient id="paint0_linear_51_153" x1="0.707764" y1="11.5955" x2="12.4154" y2="11.5955" gradientUnits="userSpaceOnUse">
<stop stop-color="#4C7ADC"/>
<stop offset="1" stop-color="#00C7A2"/>
</linearGradient>
<linearGradient id="paint1_linear_51_153" x1="2.51953" y1="7.38404" x2="6.51945" y2="7.38404" gradientUnits="userSpaceOnUse">
<stop stop-color="#4C7ADC"/>
<stop offset="1" stop-color="#00C7A2"/>
</linearGradient>
<linearGradient id="paint2_linear_51_153" x1="7.83887" y1="14.7035" x2="12.4153" y2="14.7035" gradientUnits="userSpaceOnUse">
<stop stop-color="#4C7ADC"/>
<stop offset="1" stop-color="#00C7A2"/>
</linearGradient>
<linearGradient id="paint3_linear_51_153" x1="8.75977" y1="6.01017" x2="12.4153" y2="6.01017" gradientUnits="userSpaceOnUse">
<stop stop-color="#4C7ADC"/>
<stop offset="1" stop-color="#00C7A2"/>
</linearGradient>
<linearGradient id="paint4_linear_51_153" x1="10.5847" y1="11.5955" x2="22.2924" y2="11.5955" gradientUnits="userSpaceOnUse">
<stop stop-color="#4C7ADC"/>
<stop offset="1" stop-color="#00C7A2"/>
</linearGradient>
<linearGradient id="paint5_linear_51_153" x1="16.4807" y1="7.38404" x2="20.4806" y2="7.38404" gradientUnits="userSpaceOnUse">
<stop stop-color="#4C7ADC"/>
<stop offset="1" stop-color="#00C7A2"/>
</linearGradient>
<linearGradient id="paint6_linear_51_153" x1="10.5847" y1="14.7035" x2="15.1611" y2="14.7035" gradientUnits="userSpaceOnUse">
<stop stop-color="#4C7ADC"/>
<stop offset="1" stop-color="#00C7A2"/>
</linearGradient>
<linearGradient id="paint7_linear_51_153" x1="10.5847" y1="6.01017" x2="14.2403" y2="6.01017" gradientUnits="userSpaceOnUse">
<stop stop-color="#4C7ADC"/>
<stop offset="1" stop-color="#00C7A2"/>
</linearGradient>
<clipPath id="clip0_51_153">
<rect width="23" height="23" fill="white"/>
</clipPath>
</defs>
</svg>
