<?xml version="1.0" encoding="UTF-8" standalone="no"?>
<svg
   width="19.779926"
   height="19.779924"
   viewBox="0 0 19.779926 19.779924"
   fill="none"
   version="1.1"
   id="svg1"
   sodipodi:docname="cross-svgrepo-com (2) 1.svg"
   xmlns:inkscape="http://www.inkscape.org/namespaces/inkscape"
   xmlns:sodipodi="http://sodipodi.sourceforge.net/DTD/sodipodi-0.dtd"
   xmlns="http://www.w3.org/2000/svg"
   xmlns:svg="http://www.w3.org/2000/svg">
  <defs
     id="defs1" />
  <sodipodi:namedview
     id="namedview1"
     pagecolor="#505050"
     bordercolor="#eeeeee"
     borderopacity="1"
     inkscape:showpageshadow="0"
     inkscape:pageopacity="0"
     inkscape:pagecheckerboard="0"
     inkscape:deskcolor="#505050" />
  <path
     d="m 0.37777541,17.577875 c -0.5037,0.5038 -0.5037,1.3204 0,1.8242 0.5038,0.5038 1.32059999,0.5038 1.82439999,0 z m 10.42429959,-6.7758 c 0.5038,-0.5038 0.5038,-1.3204004 0,-1.8242004 -0.5038,-0.5038 -1.3203996,-0.5038 -1.8241996,0 z M 8.9778754,8.9778746 c -0.5038,0.5038 -0.5038,1.3204004 0,1.8242004 0.5038,0.5038 1.3203996,0.5038 1.8241996,0 z m 10.4241996,-6.7757 c 0.5038,-0.5038 0.5038,-1.32060001 0,-1.82440001 -0.5038,-0.5037 -1.3204,-0.5037 -1.8242,0 z m -8.6,6.7757 c -0.5038,-0.5038 -1.3203996,-0.5038 -1.8241996,0 -0.5038,0.5038 -0.5038,1.3204004 0,1.8242004 z m 6.7758,10.4242004 c 0.5038,0.5038 1.3204,0.5038 1.8242,0 0.5038,-0.5038 0.5038,-1.3204 0,-1.8242 z m -8.5999996,-8.6 c 0.5038,0.5038 1.3203996,0.5038 1.8241996,0 0.5038,-0.5038 0.5038,-1.3204004 0,-1.8242004 z m -6.7757,-10.42430041 c -0.5038,-0.5037 -1.32059999,-0.5037 -1.82439999,0 -0.5037,0.5038 -0.5037,1.32060001 0,1.82440001 z m 0,19.02430041 8.5998996,-8.6 L 8.9778754,8.9778746 0.37777541,17.577875 Z m 8.5998996,-8.6 8.6,-8.5999004 -1.8242,-1.82440001 -8.5999996,8.60010001 z m -1.8241996,0 8.5999996,8.6 1.8242,-1.8242 -8.6,-8.6000004 z M 10.802075,8.9778746 2.2021754,0.37777459 0.37777541,2.2021746 8.9778754,10.802075 Z"
     fill="#5b5b5b"
     id="path1"
     inkscape:export-filename="../../../Desktop/cross.svg"
     inkscape:export-xdpi="96"
     inkscape:export-ydpi="96" />
</svg>
