<?xml version="1.0" encoding="UTF-8" standalone="no"?>
<!-- Created with Inkscape (http://www.inkscape.org/) -->

<svg
   width="28.338863mm"
   height="24.239069mm"
   viewBox="0 0 28.338863 24.239069"
   version="1.1"
   id="svg1"
   xml:space="preserve"
   xmlns:inkscape="http://www.inkscape.org/namespaces/inkscape"
   xmlns:sodipodi="http://sodipodi.sourceforge.net/DTD/sodipodi-0.dtd"
   xmlns="http://www.w3.org/2000/svg"
   xmlns:svg="http://www.w3.org/2000/svg"><sodipodi:namedview
     id="namedview1"
     pagecolor="#505050"
     bordercolor="#eeeeee"
     borderopacity="1"
     inkscape:showpageshadow="0"
     inkscape:pageopacity="0"
     inkscape:pagecheckerboard="0"
     inkscape:deskcolor="#505050"
     inkscape:document-units="mm" /><defs
     id="defs1" /><g
     inkscape:label="Layer 1"
     inkscape:groupmode="layer"
     id="layer1"
     style="display:inline;opacity:1"
     transform="translate(-4.1514779,-38.34212)"><g
       id="g4"
       style="stroke-width:10;stroke-dasharray:none"
       transform="translate(2.4011256,2.1056025)"><path
         id="path5"
         style="color:#000000;fill:#000000;stroke:#000000;stroke-width:2;stroke-linecap:round;stroke-linejoin:round;stroke-dasharray:none"
         d="m 27.105714,9.5408774 a 0.5,0.5 0 0 0 -0.353983,0.1462443 0.5,0.5 0 0 0 0,0.7069333 l 4.146516,4.146517 H 17.958986 a 0.5,0.5 0 0 0 -0.500228,0.500228 0.5,0.5 0 0 0 0.500228,0.499711 h 12.939261 l -4.146516,4.146517 a 0.5,0.5 0 0 0 0,0.706933 0.5,0.5 0 0 0 0.70745,0 l 4.999694,-4.999695 a 0.50005,0.50005 0 0 0 0.01499,-0.02015 0.50005,0.50005 0 0 0 0.04341,-0.0584 0.50005,0.50005 0 0 0 0.03721,-0.06201 0.50005,0.50005 0 0 0 0.02532,-0.0708 0.50005,0.50005 0 0 0 0.01705,-0.06873 0.50005,0.50005 0 0 0 0.0036,-0.07338 0.50005,0.50005 0 0 0 -0.0036,-0.07286 0.50005,0.50005 0 0 0 -0.01757,-0.07028 0.50005,0.50005 0 0 0 -0.02481,-0.06976 0.50005,0.50005 0 0 0 -0.03617,-0.06046 0.50005,0.50005 0 0 0 -0.04547,-0.06149 0.50005,0.50005 0 0 0 -0.01395,-0.0186 L 27.459181,9.6871217 A 0.5,0.5 0 0 0 27.105714,9.5408774 Z" /><path
         id="path6"
         style="color:#000000;fill:#000000;stroke:#000000;stroke-width:2;stroke-linecap:round;stroke-linejoin:round;stroke-dasharray:none"
         d="m 17.510606,18.893712 a 0.5,0.5 0 0 1 0.353983,0.146244 0.5,0.5 0 0 1 0,0.706934 l -4.146516,4.146517 h 12.939262 a 0.5,0.5 0 0 1 0.500228,0.500228 0.5,0.5 0 0 1 -0.500228,0.499711 H 13.718073 l 4.146516,4.146517 a 0.5,0.5 0 0 1 0,0.706933 0.5,0.5 0 0 1 -0.70745,0 l -4.999694,-4.999695 a 0.50005,0.50005 0 0 1 -0.01499,-0.02015 0.50005,0.50005 0 0 1 -0.04341,-0.0584 0.50005,0.50005 0 0 1 -0.03721,-0.06201 0.50005,0.50005 0 0 1 -0.02532,-0.0708 0.50005,0.50005 0 0 1 -0.01705,-0.06873 0.50005,0.50005 0 0 1 -0.0036,-0.07338 0.50005,0.50005 0 0 1 0.0036,-0.07286 0.50005,0.50005 0 0 1 0.01757,-0.07028 0.50005,0.50005 0 0 1 0.02481,-0.06976 0.50005,0.50005 0 0 1 0.03617,-0.06046 0.50005,0.50005 0 0 1 0.04547,-0.06149 0.50005,0.50005 0 0 1 0.01395,-0.0186 l 4.999704,-5.000225 a 0.5,0.5 0 0 1 0.353467,-0.146244 z" /><g
         id="path8"
         style="fill:#00C7A2;fill-opacity:1"
         transform="translate(-2.3191028,0.87323474)"
         inkscape:export-filename="path9.svg"
         inkscape:export-xdpi="96"
         inkscape:export-ydpi="96"><path
           style="color:#000000;fill:#00C7A2;fill-opacity:1;stroke-linecap:round;stroke-linejoin:round;-inkscape-stroke:none"
           d="m 25.916551,36.363117 a 0.5,0.5 0 0 0 -0.353983,0.146244 0.5,0.5 0 0 0 0,0.706933 l 4.146516,4.146517 H 16.769823 a 0.5,0.5 0 0 0 -0.500228,0.500228 0.5,0.5 0 0 0 0.500228,0.499711 h 12.939261 l -4.146516,4.146517 a 0.5,0.5 0 0 0 0,0.706933 0.5,0.5 0 0 0 0.70745,0 l 4.999694,-4.999695 a 0.50005,0.50005 0 0 0 0.01499,-0.02015 0.50005,0.50005 0 0 0 0.04341,-0.0584 0.50005,0.50005 0 0 0 0.03721,-0.06201 0.50005,0.50005 0 0 0 0.02532,-0.0708 0.50005,0.50005 0 0 0 0.01705,-0.06873 0.50005,0.50005 0 0 0 0.0036,-0.07338 0.50005,0.50005 0 0 0 -0.0036,-0.07286 0.50005,0.50005 0 0 0 -0.01757,-0.07028 0.50005,0.50005 0 0 0 -0.02481,-0.06976 0.50005,0.50005 0 0 0 -0.03617,-0.06046 0.50005,0.50005 0 0 0 -0.04547,-0.06149 0.50005,0.50005 0 0 0 -0.01395,-0.0186 l -4.999704,-5.000224 a 0.5,0.5 0 0 0 -0.353467,-0.146244 z"
           id="path19" /><path
           style="color:#000000;fill:#00C7A2;fill-opacity:1;stroke-linecap:round;stroke-linejoin:round;-inkscape-stroke:none"
           d="m 25.916016,35.363281 c -0.397126,-5e-6 -0.779542,0.15877 -1.060547,0.439453 -0.577078,0.577362 -0.577078,1.543733 0,2.121094 l 2.439453,2.439453 H 16.769531 c -0.817082,-3.72e-4 -1.500372,0.682918 -1.5,1.5 4.72e-4,0.816515 0.683485,1.500373 1.5,1.5 h 10.525391 l -2.439453,2.439453 c -0.577078,0.577362 -0.577078,1.543733 0,2.121094 0.577506,0.578068 1.543587,0.578068 2.121093,0 l 5,-5 a 1.0001,1.0001 0 0 0 0.06445,-0.07422 c 0.04395,-0.05093 0.08437,-0.105758 0.121093,-0.162109 0.03487,-0.05176 0.06753,-0.10444 0.0957,-0.160156 a 1.0001,1.0001 0 0 0 0.02148,-0.04492 c 0.02727,-0.06127 0.04953,-0.125102 0.06836,-0.189453 0.01871,-0.06066 0.03404,-0.122994 0.04492,-0.185547 a 1.0001,1.0001 0 0 0 0.0078,-0.04883 c 0.008,-0.0646 0.0083,-0.130245 0.0078,-0.195313 5.19e-4,-0.06518 1.47e-4,-0.130598 -0.0078,-0.195312 a 1.0001,1.0001 0 0 0 -0.0078,-0.04883 c -0.01163,-0.06679 -0.02828,-0.132674 -0.04883,-0.197266 -0.0179,-0.05976 -0.03925,-0.118696 -0.06445,-0.175781 a 1.0001,1.0001 0 0 0 -0.02148,-0.04687 c -0.02803,-0.05538 -0.06104,-0.108689 -0.0957,-0.160157 -0.03739,-0.05757 -0.07812,-0.11409 -0.123047,-0.166015 a 1.0001,1.0001 0 0 0 -0.0625,-0.07031 l -5,-5 c -0.280623,-0.28031 -0.661998,-0.439054 -1.058589,-0.439458 z m 6.125,7.486328 a 1.0001,1.0001 0 0 0 0.01563,-0.01563 c 0.01549,-0.01977 0.03044,-0.04002 0.04492,-0.06055 z"
           id="path18" /></g><g
         id="path9"
         style="fill:#00C7A2;fill-opacity:1"
         transform="translate(-8.0776729,2.7665072)"
         inkscape:export-filename="path9.svg"
         inkscape:export-xdpi="96"
         inkscape:export-ydpi="96"><path
           style="color:#000000;fill:#00C7A2;fill-opacity:1;stroke-linecap:round;stroke-linejoin:round;-inkscape-stroke:none"
           d="m 16.321443,45.715951 a 0.5,0.5 0 0 1 0.353983,0.146244 0.5,0.5 0 0 1 0,0.706934 l -4.146516,4.146517 h 12.939262 a 0.5,0.5 0 0 1 0.500228,0.500228 0.5,0.5 0 0 1 -0.500228,0.499711 H 12.52891 l 4.146516,4.146517 a 0.5,0.5 0 0 1 0,0.706933 0.5,0.5 0 0 1 -0.70745,0 L 10.968282,51.56934 a 0.50005,0.50005 0 0 1 -0.01499,-0.02015 0.50005,0.50005 0 0 1 -0.04341,-0.0584 0.50005,0.50005 0 0 1 -0.03721,-0.06201 0.50005,0.50005 0 0 1 -0.02532,-0.0708 0.50005,0.50005 0 0 1 -0.01705,-0.06873 0.50005,0.50005 0 0 1 -0.0036,-0.07338 0.50005,0.50005 0 0 1 0.0036,-0.07286 0.50005,0.50005 0 0 1 0.01757,-0.07028 0.50005,0.50005 0 0 1 0.02481,-0.06976 0.50005,0.50005 0 0 1 0.03617,-0.06046 0.50005,0.50005 0 0 1 0.04547,-0.06149 0.50005,0.50005 0 0 1 0.01395,-0.0186 l 4.999704,-5.000225 a 0.5,0.5 0 0 1 0.353467,-0.146244 z"
           id="path17" /><path
           style="color:#000000;fill:#00C7A2;fill-opacity:1;stroke-linecap:round;stroke-linejoin:round;-inkscape-stroke:none"
           d="m 16.320312,44.716797 c -0.39659,4.05e-4 -0.777967,0.157195 -1.058593,0.4375 l -5,5.001953 a 1.0001,1.0001 0 0 0 -0.06445,0.07031 c -5.96e-4,6.89e-4 -0.0014,0.0013 -0.002,0.002 v 0.002 c -0.04594,0.0534 -0.08702,0.110609 -0.125,0.169922 -0.0025,0.004 -0.0053,0.0077 -0.0078,0.01172 -0.02917,0.04494 -0.05782,0.09085 -0.082031,0.138672 a 1.0001,1.0001 0 0 0 -0.023437,0.04883 c -0.025191,0.05705 -0.044605,0.116061 -0.0625,0.175782 -0.020275,0.06401 -0.037302,0.129148 -0.048828,0.195312 a 1.0001,1.0001 0 0 0 -0.00781,0.05078 c -0.00796,0.06472 -0.010285,0.130129 -0.00977,0.195313 -4.921e-4,0.06507 0.00181,0.130712 0.00977,0.195312 a 1.0001,1.0001 0 0 0 0.00781,0.04883 c 0.011228,0.06452 0.027323,0.12696 0.046875,0.189454 0.018604,0.06291 0.039725,0.125591 0.066406,0.185546 a 1.0001,1.0001 0 0 0 0.021484,0.04492 c 0.028573,0.05652 0.062187,0.109668 0.097656,0.16211 0.01844,0.02819 0.0383,0.05516 0.05859,0.08203 0.01448,0.02052 0.02943,0.04078 0.04492,0.06055 a 1.0001,1.0001 0 0 0 0.0059,0.0059 c 0.003,0.0036 0.0047,0.0082 0.0078,0.01172 a 1.0001,1.0001 0 0 0 0.06641,0.07422 l 4.998047,4.998047 c 0.577506,0.578067 1.54554,0.578067 2.123046,0 0.577078,-0.577362 0.577078,-1.543733 0,-2.121094 L 14.943359,52.714844 H 25.46875 c 0.815664,-7.01e-4 1.499529,-0.682174 1.5,-1.498047 3.73e-4,-0.817082 -0.684871,-1.502326 -1.501953,-1.501953 H 14.943359 l 2.439453,-2.439453 c 0.57708,-0.577362 0.57708,-1.543732 0,-2.121094 -0.281004,-0.280683 -0.663421,-0.437504 -1.060546,-0.4375 z m -6.124999,5.513672 a 1.0001,1.0001 0 0 0 -0.01367,0.01367 c -0.01438,0.01827 -0.0275,0.03577 -0.04102,0.05469 z"
           id="path16" /></g><path
         style="fill:none;stroke:#000000;stroke-width:0.1;stroke-linecap:butt;stroke-linejoin:miter;stroke-dasharray:none;stroke-opacity:1"
         d="M 46.47692,19.66022 33.486429,32.650711"
         id="path15" /></g></g></svg>
